<svg xmlns="http://www.w3.org/2000/svg" version="1.1" xmlns:xlink="http://www.w3.org/1999/xlink" xmlns:svgjs="http://svgjs.com/svgjs" width="1920" height="1080" preserveAspectRatio="none" viewBox="0 0 1920 1080"><g mask="url(&quot;#SvgjsMask2389&quot;)" fill="none"><rect width="1920" height="1080" x="0" y="0" fill="url(#SvgjsLinearGradient2390)"></rect><path d="M28 1080L1108 0L1358.5 0L278.5 1080z" fill="url(#SvgjsLinearGradient2391)"></path><path d="M728.6 1080L1808.6 0L1916.6 0L836.6 1080z" fill="url(#SvgjsLinearGradient2391)"></path><path d="M1825 1080L745 0L-44 0L1036 1080z" fill="url(#SvgjsLinearGradient2392)"></path><path d="M1241.4 1080L161.4000000000001 0L-569.0999999999999 0L510.9000000000001 1080z" fill="url(#SvgjsLinearGradient2392)"></path><path d="M1290.0352459517526 1080L1920 450.0352459517527L1920 1080z" fill="url(#SvgjsLinearGradient2391)"></path><path d="M0 1080L629.9647540482473 1080L 0 450.0352459517527z" fill="url(#SvgjsLinearGradient2392)"></path></g><defs><mask id="SvgjsMask2389"><rect width="1920" height="1080" fill="#ffffff"></rect></mask><linearGradient x1="0%" y1="50%" x2="100%" y2="50%" gradientUnits="userSpaceOnUse" id="SvgjsLinearGradient2390"><stop stop-color="#0e2a47" offset="0"></stop><stop stop-color="rgba(80, 0, 0, 1)" offset="1"></stop></linearGradient><linearGradient x1="0%" y1="100%" x2="100%" y2="0%" id="SvgjsLinearGradient2391"><stop stop-color="rgba(15, 70, 185, 0.2)" offset="0"></stop><stop stop-opacity="0" stop-color="rgba(15, 70, 185, 0.2)" offset="0.66"></stop></linearGradient><linearGradient x1="100%" y1="100%" x2="0%" y2="0%" id="SvgjsLinearGradient2392"><stop stop-color="rgba(15, 70, 185, 0.2)" offset="0"></stop><stop stop-opacity="0" stop-color="rgba(15, 70, 185, 0.2)" offset="0.66"></stop></linearGradient></defs></svg>